<?xml version="1.0" encoding="UTF-8" standalone="no"?>
<!-- Created with Inkscape (http://www.inkscape.org/) -->

<svg
   xmlns:dc="http://purl.org/dc/elements/1.1/"
   xmlns:cc="http://creativecommons.org/ns#"
   xmlns:rdf="http://www.w3.org/1999/02/22-rdf-syntax-ns#"
   xmlns:svg="http://www.w3.org/2000/svg"
   xmlns="http://www.w3.org/2000/svg"
   xmlns:sodipodi="http://sodipodi.sourceforge.net/DTD/sodipodi-0.dtd"
   xmlns:inkscape="http://www.inkscape.org/namespaces/inkscape"
   version="1.1"
   id="svg4571"
   width="409.09402"
   height="150.75827"
   viewBox="0 0 409.09402 150.75827"
   sodipodi:docname="Emily.svg"
   inkscape:version="0.92.1 r">
  <metadata
     id="metadata4577">
    <rdf:RDF>
      <cc:Work
         rdf:about="">
        <dc:format>image/svg+xml</dc:format>
        <dc:type
           rdf:resource="http://purl.org/dc/dcmitype/StillImage" />
        <dc:title></dc:title>
      </cc:Work>
    </rdf:RDF>
  </metadata>
  <defs
     id="defs4575" />
  <sodipodi:namedview
     pagecolor="#ffffff"
     bordercolor="#666666"
     borderopacity="1"
     objecttolerance="10"
     gridtolerance="10"
     guidetolerance="10"
     inkscape:pageopacity="0"
     inkscape:pageshadow="2"
     inkscape:window-width="3832"
     inkscape:window-height="2075"
     id="namedview4573"
     showgrid="false"
     inkscape:zoom="1.7308559"
     inkscape:cx="287.04088"
     inkscape:cy="201.48781"
     inkscape:window-x="0"
     inkscape:window-y="42"
     inkscape:window-maximized="0"
     inkscape:current-layer="svg4571" />
  <path
     style="fill:#000000"
     d="m 226.98829,149.33626 c -9.03791,-2.76319 -17,-8.98216 -17,-13.27824 0,-4.4373 4.38665,-8.74199 11.72771,-11.50858 9.76833,-3.68135 24.2344,-4.14048 57.77229,-1.8336 14.85,1.02144 27.55285,1.6635 28.22856,1.4268 1.88765,-0.66124 10.67468,-13.01393 14.05238,-19.75464 3.87376,-7.730684 8.33303,-18.697564 7.81379,-19.216804 -0.22107,-0.22107 -1.78342,1.60595 -3.47189,4.06006 -3.72909,5.42005 -10.85358,11.828154 -15.89746,14.298924 -2.04896,1.00369 -5.90807,1.83721 -8.5758,1.85226 -4.66021,0.0263 -5.07689,-0.21359 -10.62567,-6.116984 -3.80138,-4.04432 -6.09584,-7.46213 -6.71324,-10 l -0.93799,-3.85566 -1.65328,3.13642 c -2.12585,4.0329 -13.33916,13.888934 -18.03277,15.850054 -1.99232,0.83244 -5.34126,1.51353 -7.4421,1.51353 -5.39393,0 -12.17916,-7.043514 -15.10014,-15.674924 -1.7096,-5.05184 -3.89062,-20.49727 -4.21153,-29.82507 -0.0378,-1.1 -1.09105,1.375 -2.34045,5.5 -3.4798,11.48876 -6.47919,16.9719 -12.7182,23.24999 -6.13752,6.17596 -8.61343,6.96256 -12.9017,4.09888 -7.91667,-5.28671 -13.66887,-13.05615 -15.42248,-20.83103 l -1.13176,-5.01784 -1.91973,5.28629 c -2.72731,7.5101 -11.60648,17.95572 -15.95676,18.77184 -4.80955,0.90228 -6.44154,0.11883 -12.47156,-5.98704 l -5.36468,-5.43214 -0.76421,-13.31947 c -0.42031,-7.32572 -1.06823,-14.51869 -1.43982,-15.98439 l -0.67561,-2.66491 -3.17255,1.87184 c -3.74641,2.21044 -11.21748,13.167 -13.096,19.20572 -0.72753,2.33875 -1.90504,6.18732 -2.61667,8.55239 -0.71164,2.36507 -1.70098,4.55172 -2.19854,4.85923 -0.49757,0.30751 -2.14052,-0.62492 -3.65101,-2.07206 -2.59734,-2.4884 -2.80708,-3.37762 -3.86572,-16.38929 -1.56343,-19.215804 -1.89751,-19.738418 -8.82652,-13.80745 -5.08254,4.35047 -11.45846,16.97573 -15.45817,30.60943 -1.210135,4.125 -2.588895,7.92453 -3.063895,8.44341 -0.523496,0.57186 -2.047736,-0.19104 -3.870236,-1.93709 -2.50217,-2.39724 -3.00659,-3.66442 -3.00659,-7.55307 v -4.67257 l -7.41561,7.29628 c -8.04802,7.91853 -11.858148,10.23065 -24.084388,14.61529 C 52.81982,99.493526 49.286002,100.0747 38.256653,100.59381 20.056775,101.45042 14.157031,99.896166 7.0387679,92.369656 1.2947119,86.296156 -0.01671107,83.543316 1.599257e-4,77.594706 0.03170993,66.469576 4.9504549,55.983796 14.119854,47.494346 c 10.634719,-9.846122 20.049934,-14.5478 29.184178,-14.573712 4.659663,-0.01322 7.069559,1.160073 11.934259,5.810356 5.70829,5.456689 5.2656,8.299636 -2.61712,16.807086 -8.605668,9.28769 -16.003276,15.01433 -23.162384,17.93048 -8.098579,3.29883 -14.026125,3.24117 -17.587754,-0.17109 l -2.7266975,-2.61234 -1.072445,3.86234 c -1.4099306,5.07777 -1.3715836,11.63617 0.08675,14.83686 1.9589925,4.29952 9.7369075,5.93012 24.8184235,5.20306 18.185633,-0.8767 30.199207,-5.27348 41.511227,-15.19243 8.273728,-7.25483 12.171098,-14.08484 14.014578,-24.56006 0.81548,-4.6338 1.4833,-10.337586 1.48405,-12.675086 7.5e-4,-2.3375 0.31425,-4.25 0.69665,-4.25 0.38241,0 1.95741,1.209191 3.5,2.687091 2.64232,2.531504 2.80561,3.182899 2.82003,11.249995 0.0202,11.27095 1.055376,12.78029 3.921771,5.71793 1.22579,-3.02014 3.29208,-6.93248 4.59175,-8.6941 2.93759,-3.981676 8.67482,-7.960916 11.47798,-7.960916 1.17254,0 4.54006,2.295492 7.56646,5.157735 4.19113,3.963801 5.59577,6.047161 6.06794,9.000001 0.75074,4.69485 1.78877,4.84927 3.98132,0.59226 3.90801,-7.58771 10.7301,-13.749996 15.22222,-13.749996 0.95174,0 3.82743,2.1375 6.39042,4.75 4.13359,4.213426 4.77802,5.484246 5.70486,11.249996 0.57467,3.575 1.09312,10.1 1.1521,14.5 0.15309,11.42159 0.76686,13.03811 4.8738,12.83641 2.56449,-0.12595 4.2148,-1.16112 7.17406,-4.5 3.9296,-4.43368 8.62818,-13.1911 10.91103,-20.33641 5.46447,-17.103835 6.43258,-18.326979 11.024,-13.928118 2.72731,2.612928 2.75209,2.755658 3.08718,17.781088 0.30926,13.86732 0.54293,15.50518 2.76582,19.38613 3.14539,5.49157 5.2655,6.1134 9.59206,2.81337 9.9735,-7.60715 17.63191,-27.56936 22.4634,-58.552466 0.64325,-4.125 1.57607,-9.3 2.07292,-11.5 0.49686,-2.2 1.3607,-6.6607659 1.91964,-9.9128129 0.55894,-3.252047 1.25741,-6.15396999 1.55216,-6.44871799 0.29475,-0.294748 1.83253,0.791018 3.41729,2.41281299 l 2.88139,2.948718 -1.55956,26.9999999 c -1.23808,21.434236 -1.33618,29.989016 -0.4759,41.499996 1.1012,14.73449 3.42672,24.76273 5.96862,25.73815 4.63863,1.780014 18.52601,-8.01128 24.27752,-17.11685 4.35833,-6.89992 5.71671,-11.0463 6.42807,-19.6213 1.26134,-15.20464 1.95611,-16.300555 6.99776,-11.03821 l 2.83758,2.96179 -1.28562,8.96933 c -2.23588,15.59902 0.60998,34.47297 5.37837,35.66976 5.33906,1.340024 16.68112,-5.99098 22.95761,-14.83876 6.88277,-9.70244 11.40656,-19.63251 13.27422,-29.13793 0.95493,-4.86013 2.18891,-8.58598 2.84363,-8.58598 0.63615,0 2.4216,1.32034 3.96767,2.93409 l 2.81104,2.93409 -0.68862,10.81591 c -0.83589,13.12907 -3.08607,26.02145 -5.72267,32.78798 -3.3882,8.695424 -9.0949,19.878484 -12.18148,23.871274 -2.31821,2.99884 -2.67709,4.02504 -1.63326,4.67016 2.45209,1.51548 20.2757,2.28037 37.97814,1.62982 18.37929,-0.67543 22.26875,-1.43334 36.98467,-7.20693 l 7.05844,-2.76928 3.03131,2.90418 3.03131,2.90418 -4.30287,1.85117 c -2.36657,1.01814 -8.35286,3.19921 -13.30286,4.84682 -8.89494,2.96068 -9.27434,2.99758 -32.5,3.16109 -12.925,0.091 -28.675,-0.22627 -35,-0.70503 l -11.5,-0.87048 -3.86455,3.10224 c -8.45727,6.78899 -26.19511,13.41447 -41.88461,15.64484 -12.82705,1.82346 -33.66265,1.7817 -39.75084,-0.0797 z m 42.82782,-7.37169 c 8.45294,-2.09266 21.34459,-7.01931 26.51211,-10.13181 l 2.83992,-1.71055 -4.83992,-0.58058 c -14.23344,-1.70739 -45.40995,-2.79477 -53.33993,-1.86039 -11.8452,1.39569 -19.32128,4.3943 -22.07847,8.85553 -2.52542,4.08621 -2.09542,4.79866 4.13632,6.85343 6.71078,2.21272 35.63481,1.33106 46.76997,-1.42563 z M 24.169646,67.052776 c 10.54628,-4.7318 27.818645,-21.0195 27.818645,-26.232764 0,-1.490653 -0.713816,-1.907825 -3.25,-1.899378 -8.381107,0.02791 -18.472398,5.167504 -27.923085,14.221482 -14.4637681,13.85664 -12.7124215,21.11937 3.35444,13.91066 z M 192.71182,22.868634 c -3.05006,-3.050061 -3.75859,-4.323767 -2.88895,-5.193408 0.86965,-0.869641 1.88706,-0.448227 4.1484,1.718274 1.64789,1.578778 2.77487,3.091793 2.50441,3.362256 -0.27047,0.270463 0.25397,1.315769 1.16542,2.322902 3.38497,3.74035 -0.9001,1.819154 -4.92928,-2.210024 z"
     id="path4587"
     inkscape:connector-curvature="0" />
</svg>
